<?xml version="1.0" encoding="UTF-8"?>
<svg width="50px" height="38px" viewBox="0 0 50 38" version="1.1" xmlns="http://www.w3.org/2000/svg" xmlns:xlink="http://www.w3.org/1999/xlink">
    <!-- Generator: sketchtool 46.2 (44496) - http://www.bohemiancoding.com/sketch -->
    <title>49422612-F475-458A-BF1B-B9437A2CCE6E</title>
    <desc>Created with sketchtool.</desc>
    <defs></defs>
    <g id="OOF-Visual-Design-V2" stroke="none" stroke-width="1" fill="none" fill-rule="evenodd">
        <g id="Response-type-icons" transform="translate(-232.000000, -68.000000)" fill-rule="nonzero" fill="#292837">
            <g id="Group" transform="translate(232.000000, 68.000000)">
                <g id="Group-3">
                    <path d="M28.08,12.48 L28.08,15.6 L21.84,15.6 L21.84,12.48 L28.08,12.48 L28.08,12.48 Z M3.12,3.12 L46.8,3.12 L46.8,20.109375 L31.2,12.285 L31.2,9.36 L18.72,9.36 L18.72,12.285 L3.12,20.109375 L3.12,3.12 L3.12,3.12 Z M46.8,28.08 L3.12,28.08 L3.12,23.570625 L18.72,15.795 L18.72,18.72 L31.2,18.72 L31.2,15.795 L46.8,23.570625 L46.8,28.08 L46.8,28.08 Z M31.2,34.32 L18.72,34.32 L18.72,31.2 L31.2,31.2 L31.2,34.32 L31.2,34.32 Z M34.32,34.32 L34.32,31.2 L49.92,31.2 L49.92,0 L0,0 L0,31.2 L15.6,31.2 L15.6,34.32 C15.6,35.165 15.90875,35.89625 16.52625,36.51375 C17.14375,37.13125 17.875,37.44 18.72,37.44 L31.2,37.44 C32.045,37.44 32.784375,37.139375 33.418125,36.538125 C34.019375,35.904375 34.32,35.165 34.32,34.32 Z" id="Shape" transform="translate(24.960000, 18.720000) scale(-1, 1) rotate(-180.000000) translate(-24.960000, -18.720000) "></path>
                </g>
            </g>
        </g>
    </g>
</svg>