<?xml version="1.0" encoding="UTF-8"?>
<svg width="141px" height="141px" viewBox="0 0 141 141" version="1.1" xmlns="http://www.w3.org/2000/svg" xmlns:xlink="http://www.w3.org/1999/xlink">
    <!-- Generator: sketchtool 46.2 (44496) - http://www.bohemiancoding.com/sketch -->
    <title>CBCAC109-DD03-43BF-8044-0B4478D6A461</title>
    <desc>Created with sketchtool.</desc>
    <defs></defs>
    <g id="OOF-Visual-Design-V2" stroke="none" stroke-width="1" fill="none" fill-rule="evenodd">
        <g id="Confirmation_invite" transform="translate(-250.000000, -392.000000)">
            <g id="Group-2" transform="translate(78.000000, 392.000000)">
                <g id="Group" transform="translate(172.000000, 0.000000)">
                    <g id="Group-3" fill-opacity="0.2" fill="#655EFE">
                        <circle id="Oval-3" cx="70.5" cy="70.5" r="70.5"></circle>
                    </g>
                    <path d="M37.6873332,81.8733317 L37.6873332,49.0619995 L79.8733317,49.0619995 L79.8733317,44.3746663 L33,44.3746663 L33,100.622664 L47.0619995,100.622664 L47.0619995,105.309998 L51.7493327,105.309998 L51.7493327,100.622664 L79.8733317,100.622664 L79.8733317,105.309998 L84.5606649,105.309998 L84.5606649,100.622664 L98.6226644,100.622664 L98.6226644,63.123999 L93.9353312,63.123999 L93.9353312,81.8733317 L37.6873332,81.8733317 L37.6873332,81.8733317 Z M47.0619995,95.9353312 L37.6873332,95.9353312 L37.6873332,86.5606649 L93.9353312,86.5606649 L93.9353312,95.9353312 L84.5606649,95.9353312 L84.5606649,91.247998 L79.8733317,91.247998 L79.8733317,95.9353312 L51.7493327,95.9353312 L51.7493327,91.247998 L47.0619995,91.247998 L47.0619995,95.9353312 L47.0619995,95.9353312 Z M98.6226644,49.0619995 L107.997331,49.0619995 L107.997331,44.3746663 L98.6226644,44.3746663 L98.6226644,35 L93.9353312,35 L93.9353312,44.3746663 L84.5606649,44.3746663 L84.5606649,49.0619995 L93.9353312,49.0619995 L93.9353312,58.4366659 L98.6226644,58.4366659 L98.6226644,49.0619995 Z" id="Shape" fill="#5037FF" fill-rule="nonzero" transform="translate(70.498665, 70.154999) scale(-1, 1) rotate(-180.000000) translate(-70.498665, -70.154999) "></path>
                </g>
            </g>
        </g>
    </g>
</svg>