<?xml version="1.0" encoding="UTF-8"?>
<svg width="37px" height="35px" viewBox="0 0 37 35" version="1.1" xmlns="http://www.w3.org/2000/svg" xmlns:xlink="http://www.w3.org/1999/xlink">
    <!-- Generator: sketchtool 46.2 (44496) - http://www.bohemiancoding.com/sketch -->
    <title>D87BA4AF-D287-4C25-BE4D-1999D7774812</title>
    <desc>Created with sketchtool.</desc>
    <defs></defs>
    <g id="OOF-Visual-Design-V2" stroke="none" stroke-width="1" fill="none" fill-rule="evenodd">
        <g id="Home---Off" transform="translate(-30.000000, -1061.000000)" fill-rule="nonzero" fill="#909197">
            <g id="Group-6-Copy" transform="translate(30.000000, 1061.000000)">
                <g id="Group-4">
                    <path d="M2.6208,2.6208 L36.208,2.6208 L36.208,0 L0,7.81929022e-14 L0,31.4496 L7.8624,31.4496 L7.8624,34.0704 L10.4832,34.0704 L10.4832,31.4496 L26.208,31.4496 L26.208,34.0704 L28.8288,34.0704 L28.8288,31.4496 L36.6912,31.4496 L36.6912,0.000453710938 L34.0704,0.000453710938 L34.0704,20.9664 L2.6208,20.9664 L2.6208,2.6208 Z M7.8624,28.8288 L2.6208,28.8288 L2.6208,23.5872 L34.0704,23.5872 L34.0704,28.8288 L28.8288,28.8288 L28.8288,26.208 L26.208,26.208 L26.208,28.8288 L10.4832,28.8288 L10.4832,26.208 L7.8624,26.208 L7.8624,28.8288 Z M13,10.5704 L24,10.5704 L24,13.0704 L13,13.0704 L13,10.5704 Z" id="Shape" transform="translate(18.345600, 17.035200) scale(-1, 1) rotate(-180.000000) translate(-18.345600, -17.035200) "></path>
                </g>
            </g>
        </g>
    </g>
</svg>