<?xml version="1.0" encoding="UTF-8"?>
<svg width="35px" height="35px" viewBox="-1 -1 37 37" version="1.1" xmlns="http://www.w3.org/2000/svg" xmlns:xlink="http://www.w3.org/1999/xlink">
    <!-- Generator: sketchtool 46.2 (44496) - http://www.bohemiancoding.com/sketch -->
    <title>3F5CADF7-2E45-45E8-88A5-04BE854DAA17</title>
    <desc>Created with sketchtool.</desc>
    <defs></defs>
    <g id="OOF-Visual-Design-V2" stroke="none" stroke-width="1" fill="none" fill-rule="evenodd">
        <g id="Home---new" transform="translate(-575.000000, -715.000000)" fill-rule="nonzero" fill="#5037FF">
            <g id="Group-3" transform="translate(575.000000, 715.000000)">
                <path d="M8.6165625,4.402125 C8.2525625,6.0515 7.587125,7.1378125 6.62025,7.6610625 C5.653375,8.1843125 4.914,8.5028125 4.402125,8.6165625 L3.003,3.003 L8.6165625,4.402125 L8.6165625,4.402125 Z M29.0233125,24.024 L24.024,29.0233125 L5.562375,10.57875 C6.768125,10.180625 7.80609375,9.54646875 8.67628125,8.67628125 C9.54646875,7.80609375 10.180625,6.768125 10.57875,5.562375 L29.0233125,24.024 L29.0233125,24.024 Z M32.76,29.245125 C32.76,30.200625 32.4130625,31.0253125 31.7191875,31.7191875 C31.0253125,32.4130625 30.18925,32.76 29.211,32.76 C28.23275,32.76 27.288625,32.305 26.378625,31.395 L25.5766875,30.576 L30.576,25.5766875 L31.395,26.378625 C31.9865,26.91325 32.361875,27.4080625 32.521125,27.8630625 C32.680375,28.3294375 32.76,28.790125 32.76,29.245125 L32.76,29.245125 Z M33.271875,33.271875 C34.386625,32.134375 34.944,30.7750625 34.944,29.1939375 C34.944,27.6241875 34.386625,26.2819375 33.271875,25.1671875 L10.8005625,2.695875 L1.99840144e-15,7.10542736e-15 L2.695875,10.8005625 L25.1671875,33.271875 C26.2819375,34.386625 27.6241875,34.944 29.1939375,34.944 C30.7750625,34.944 32.134375,34.386625 33.271875,33.271875 Z" id="Shape" transform="translate(17.472000, 17.472000) scale(-1, 1) rotate(-180.000000) translate(-17.472000, -17.472000) "></path>
            </g>
        </g>
    </g>
</svg>