<?xml version="1.0" encoding="UTF-8"?>
<svg width="66px" height="66px" viewBox="0 0 66 66" version="1.1" xmlns="http://www.w3.org/2000/svg" xmlns:xlink="http://www.w3.org/1999/xlink">
    <!-- Generator: sketchtool 46.2 (44496) - http://www.bohemiancoding.com/sketch -->
    <title>054D21A5-905C-44D6-A7CA-A1693F6FB410</title>
    <desc>Created with sketchtool.</desc>
    <defs></defs>
    <g id="OOF-Visual-Design-V2" stroke="none" stroke-width="1" fill="none" fill-rule="evenodd">
        <g id="Response-type---blue" transform="translate(-527.000000, -485.000000)" fill-rule="nonzero" fill="#0490FF">
            <g id="Group-6" transform="translate(560.000000, 514.464466) rotate(-315.000000) translate(-560.000000, -514.464466) translate(534.500000, 488.964466)">
                <g id="E701" transform="translate(-0.000000, -0.000000)">
                    <path d="M22.5688525,0.0640525317 C22.5688525,2.13436503 22.8374072,4.12655253 23.3745166,6.04061503 C23.911626,7.95467753 24.6684619,9.74666972 25.6450244,11.4165916 C26.6215869,13.0865135 27.7934619,14.6050682 29.1606494,15.9722557 C30.5278369,17.3394432 32.0463916,18.5113182 33.7163135,19.4878807 C35.3862353,20.4644432 37.1782275,21.2212791 39.09229,21.7583885 C41.0063525,22.2954978 42.99854,22.5640525 45.0688525,22.5640525 L45.0688525,18.8140525 C43.3501025,18.8140525 41.6899463,18.5894432 40.0883838,18.1402244 C38.4868213,17.6910057 36.9926807,17.0611228 35.6059619,16.250576 C34.2192432,15.4400291 32.9545947,14.4634666 31.8120166,13.3208885 C30.6694385,12.1783103 29.692876,10.9136619 28.8823291,9.52694316 C28.0717822,8.14022441 27.4418994,6.64608378 26.9926807,5.04452128 C26.5434619,3.44295878 26.3188525,1.78280253 26.3188525,0.0640525317 L22.5688525,0.0640525317 L22.5688525,0.0640525317 Z M11.3188525,0.0640525317 C11.3188525,3.16952128 11.7192432,6.16268534 12.5200244,9.04354472 C13.3208057,11.9244041 14.4536182,14.6148338 15.9184619,17.1148338 C17.3833057,19.6148338 19.1411182,21.8902244 21.1918994,23.9410057 C23.2426807,25.9917869 25.5180713,27.7495994 28.0180713,29.2144432 C30.5180713,30.6792869 33.208501,31.8120994 36.0893603,32.6128807 C38.9702197,33.4136619 41.9633838,33.8140525 45.0688525,33.8140525 L45.0688525,30.0640525 C42.3149463,30.0640525 39.6635791,29.7076072 37.114751,28.9947166 C34.5659228,28.281826 32.1782275,27.2710838 29.951665,25.96249 C27.7251025,24.6538963 25.6987353,23.0865135 23.8725635,21.2603416 C22.0463916,19.4341697 20.4790088,17.4078025 19.170415,15.18124 C17.8618213,12.9546775 16.8510791,10.5669822 16.1381885,8.01815409 C15.4252978,5.46932597 15.0688525,2.81795878 15.0688525,0.0640525317 L11.3188525,0.0640525317 L11.3188525,0.0640525317 Z M0.0688525317,0.0640525317 C0.0688525317,4.20467753 0.605961907,8.18905253 1.68018066,12.0171775 C2.75439941,15.8453025 4.26807128,19.4292869 6.22119628,22.7691307 C8.17432128,26.1089744 10.5180713,29.1460838 13.2524463,31.8804588 C15.9868213,34.6148338 19.0239307,36.9585838 22.3637744,38.9117088 C25.7036182,40.8648338 29.2876025,42.3785057 33.1157275,43.4527244 C36.9438525,44.5269432 40.9282275,45.0640525 45.0688525,45.0640525 L45.0688525,41.3140525 C41.27979,41.3140525 37.6323291,40.8208885 34.1264697,39.8345603 C30.6206103,38.8482322 27.3393603,37.4615135 24.2827197,35.6744041 C21.2260791,33.8872947 18.4379932,31.7339744 15.9184619,29.2144432 C13.3989307,26.6949119 11.2456103,23.906826 9.45850097,20.8501853 C7.67139159,17.7935447 6.28467284,14.5122947 5.29834472,11.0064353 C4.31201659,7.50057597 3.81885253,3.85311503 3.81885253,0.0640525317 L0.0688525317,0.0640525317 L0.0688525317,0.0640525317 Z M39.4438525,11.3140525 C40.2251025,11.3140525 40.9575244,11.1675682 41.6411182,10.8745994 C42.3247119,10.5816307 42.920415,10.18124 43.4282275,9.67342753 C43.93604,9.16561503 44.3364307,8.56991191 44.6293994,7.88631816 C44.9223682,7.20272441 45.0688525,6.47030253 45.0688525,5.68905253 C45.0688525,4.90780253 44.9223682,4.17538066 44.6293994,3.49178691 C44.3364307,2.80819316 43.93604,2.21249003 43.4282275,1.70467753 C42.920415,1.19686503 42.3247119,0.796474407 41.6411182,0.503505657 C40.9575244,0.210536907 40.2251025,0.0640525317 39.4438525,0.0640525317 C38.6626025,0.0640525317 37.9301807,0.210536907 37.2465869,0.503505657 C36.5629932,0.796474407 35.96729,1.19686503 35.4594775,1.70467753 C34.951665,2.21249003 34.5512744,2.80819316 34.2583057,3.49178691 C33.9653369,4.17538066 33.8188525,4.90780253 33.8188525,5.68905253 C33.8188525,6.47030253 33.9653369,7.20272441 34.2583057,7.88631816 C34.5512744,8.56991191 34.951665,9.16561503 35.4594775,9.67342753 C35.96729,10.18124 36.5629932,10.5816307 37.2465869,10.8745994 C37.9301807,11.1675682 38.6626025,11.3140525 39.4438525,11.3140525 Z" id="Shape" transform="translate(22.568853, 22.564053) scale(-1, 1) rotate(-180.000000) translate(-22.568853, -22.564053) "></path>
                </g>
            </g>
        </g>
    </g>
</svg>