<?xml version="1.0" encoding="UTF-8"?>
<svg width="64px" height="64px" viewBox="0 0 64 64" version="1.1" xmlns="http://www.w3.org/2000/svg" xmlns:xlink="http://www.w3.org/1999/xlink">
    <!-- Generator: sketchtool 46.2 (44496) - http://www.bohemiancoding.com/sketch -->
    <title>654E23CE-0C83-4AE5-9C22-EA3E591AE2CB</title>
    <desc>Created with sketchtool.</desc>
    <defs></defs>
    <g id="OOF-Visual-Design-V2" stroke="none" stroke-width="1" fill="none" fill-rule="evenodd">
        <g id="Response-type---grey" transform="translate(-288.000000, -487.000000)" fill-rule="nonzero" fill="#909197">
            <g id="Group-4" transform="translate(320.000000, 517.585786) rotate(-315.000000) translate(-320.000000, -517.585786) translate(297.000000, 494.585786)">
                <g id="EC3E" transform="translate(-0.000000, -0.000000)">
                    <path d="M13.1973592,0.757359313 C13.1973592,3.04666485 13.494321,5.2549808 14.0882446,7.38230718 C14.6821682,9.50963355 15.5190606,11.4911787 16.5989217,13.3269425 C17.6787828,15.1627064 18.9746161,16.8364911 20.4864217,18.3482967 C21.9982272,19.8601022 23.6720119,21.1559355 25.5077758,22.2357966 C27.3435397,23.3156577 29.3250848,24.1525501 31.4524111,24.7464737 C33.5797375,25.3403973 35.7880535,25.6373591 38.077359,25.6373591 L38.077359,21.4906925 C36.1768035,21.4906925 34.3410396,21.2423244 32.5700674,20.7455883 C30.7990952,20.2488522 29.1469077,19.5523418 27.6135049,18.6560571 C26.0801022,17.7597724 24.681682,16.6799113 23.4182445,15.4164738 C22.1548071,14.1530363 21.074946,12.7546162 20.1786612,11.2212134 C19.2823765,9.68781063 18.5858661,8.03562314 18.08913,6.26465093 C17.5923939,4.49367873 17.3440258,2.65791485 17.3440258,0.757359313 L13.1973592,0.757359313 L13.1973592,0.757359313 Z M0.757359313,0.757359313 C0.757359313,4.19131762 1.20010236,7.5010919 2.08558847,10.6866821 C2.97107457,13.8722724 4.22371345,16.8472897 5.8435051,19.6117342 C7.46329676,22.3761786 9.40704674,24.8922549 11.6747551,27.1599633 C13.9424634,29.4276716 16.4585397,31.3714216 19.2229842,32.9912132 C21.9874286,34.6110049 24.9624459,35.8636437 28.1480362,36.7491299 C31.3336264,37.634616 34.6434007,38.077359 38.077359,38.077359 L38.077359,33.9306924 C35.0321507,33.9306924 32.0949285,33.5365431 29.2656924,32.7482445 C26.4364563,31.9599459 23.7961959,30.8422896 21.3449112,29.3952757 C18.8936265,27.9482619 16.658314,26.2150848 14.6389738,24.1957445 C12.6196335,22.1764043 10.8864565,19.9410918 9.43944258,17.4898071 C7.9924287,15.0385224 6.87477246,12.398262 6.08647385,9.56902591 C5.29817525,6.73978982 4.90402595,3.80256762 4.90402595,0.757359313 L0.757359313,0.757359313 L0.757359313,0.757359313 Z M31.8573591,13.1973592 C32.7212479,13.1973592 33.5311438,13.03538 34.2870465,12.7114217 C35.0429493,12.3874634 35.7016646,11.9447203 36.2631924,11.3831926 C36.8247201,10.8216648 37.2674632,10.1629495 37.5914215,9.40704674 C37.9153798,8.65114397 38.077359,7.84124814 38.077359,6.97735926 C38.077359,6.11347038 37.9153798,5.30357455 37.5914215,4.54767178 C37.2674632,3.79176901 36.8247201,3.13305374 36.2631924,2.57152596 C35.7016646,2.00999819 35.0429493,1.56725514 34.2870465,1.24329681 C33.5311438,0.919338478 32.7212479,0.757359313 31.8573591,0.757359313 C30.9934702,0.757359313 30.1835744,0.919338478 29.4276716,1.24329681 C28.6717688,1.56725514 28.0130535,2.00999819 27.4515258,2.57152596 C26.889998,3.13305374 26.4472549,3.79176901 26.1232966,4.54767178 C25.7993383,5.30357455 25.6373591,6.11347038 25.6373591,6.97735926 C25.6373591,7.84124814 25.7993383,8.65114397 26.1232966,9.40704674 C26.4472549,10.1629495 26.889998,10.8216648 27.4515258,11.3831926 C28.0130535,11.9447203 28.6717688,12.3874634 29.4276716,12.7114217 C30.1835744,13.03538 30.9934702,13.1973592 31.8573591,13.1973592 Z" id="Shape" transform="translate(19.417359, 19.417359) scale(-1, 1) rotate(-180.000000) translate(-19.417359, -19.417359) "></path>
                </g>
            </g>
        </g>
    </g>
</svg>