<?xml version="1.0" encoding="UTF-8"?>
<svg width="45px" height="45px" viewBox="0 0 45 45" version="1.1" xmlns="http://www.w3.org/2000/svg" xmlns:xlink="http://www.w3.org/1999/xlink">
    <!-- Generator: sketchtool 46.2 (44496) - http://www.bohemiancoding.com/sketch -->
    <title>09DB2257-7609-45D7-BF25-7E4226A36047</title>
    <desc>Created with sketchtool.</desc>
    <defs></defs>
    <g id="OOF-Visual-Design-V2" stroke="none" stroke-width="1" fill="none" fill-rule="evenodd">
        <g id="Response-type---grey" transform="translate(-58.000000, -496.000000)" fill-rule="nonzero" fill="#909197">
            <g id="E105" transform="translate(58.000000, 496.000000)">
                <path d="M2.808,22.464 C2.808,18.98325 3.700125,15.692625 5.484375,12.592125 C6.303375,11.188125 7.327125,9.842625 8.555625,8.555625 C11.0565,6.098625 13.95225,4.41675 17.242875,3.51 C18.793125,3.042 20.6431875,2.808 22.7930625,2.808 C24.9429375,2.808 27.11475,3.2175 29.3085,4.0365 C31.50225,4.8555 33.5131875,6.0474375 35.3413125,7.6123125 L7.6123125,35.3413125 C4.4094375,31.6119375 2.808,27.3195 2.808,22.464 L2.808,22.464 Z M42.12,22.464 C42.12,26.017875 41.2205625,29.323125 39.4216875,32.37975 C38.5880625,33.84225 37.5643125,35.1658125 36.3504375,36.3504375 C35.2535625,37.4765625 33.93,38.493 32.37975,39.39975 C30.8295,40.3065 29.2280625,40.9865625 27.5754375,41.4399375 C25.9228125,41.8933125 24.058125,42.12 21.981375,42.12 C19.904625,42.12 17.769375,41.7141562 15.575625,40.9024687 C13.381875,40.0907812 11.3855625,38.8951875 9.5866875,37.3156875 L37.3156875,9.5866875 C40.5185625,13.3014375 42.12,17.593875 42.12,22.464 L42.12,22.464 Z M16.497,44.13825 C18.51525,44.66475 20.50425,44.928 22.464,44.928 C24.42375,44.928 26.398125,44.6574375 28.387125,44.1163125 C32.175,43.0779375 35.494875,41.1474375 38.34675,38.3248125 C39.736125,36.9354375 40.906125,35.42175 41.85675,33.78375 C43.90425,30.259125 44.928,26.485875 44.928,22.464 C44.928,18.442125 43.90425,14.668875 41.85675,11.14425 C40.92075,9.5355 39.75075,8.029125 38.34675,6.625125 C35.436375,3.71475 32.131125,1.7769375 28.431,0.8116875 C26.544375,0.2705625 23.5499062,0 19.4475937,0 C15.3452812,0 11.0565,2.19375 6.58125,6.58125 C2.19375,11.100375 0,15.3964688 0,19.4695312 C0,23.5425938 0.26325,26.515125 0.78975,28.387125 C1.872,32.2335 3.8098125,35.5460625 6.6031875,38.3248125 C9.4111875,41.1181875 12.709125,43.056 16.497,44.13825 Z" id="Shape" transform="translate(22.464000, 22.464000) scale(-1, 1) rotate(-180.000000) translate(-22.464000, -22.464000) "></path>
            </g>
        </g>
    </g>
</svg>