<?xml version="1.0" encoding="UTF-8"?>
<svg width="44px" height="50px" viewBox="0 0 44 50" version="1.1" xmlns="http://www.w3.org/2000/svg" xmlns:xlink="http://www.w3.org/1999/xlink">
    <!-- Generator: sketchtool 46.2 (44496) - http://www.bohemiancoding.com/sketch -->
    <title>8980B5AB-959B-4801-93EB-F05771F0DE23</title>
    <desc>Created with sketchtool.</desc>
    <defs></defs>
    <g id="OOF-Visual-Design-V2" stroke="none" stroke-width="1" fill="none" fill-rule="evenodd">
        <g id="Response-type-icons-grey" transform="translate(-474.000000, -62.000000)" fill-rule="nonzero" fill="#909197">
            <g id="Group-6" transform="translate(474.000000, 62.000000)">
                <g id="Group-7">
                    <path d="M13.040625,25.520625 C15.461875,23.066875 18.3909375,21.84 21.8278125,21.84 C25.2646875,21.84 28.2059375,23.0628125 30.6515625,25.5084375 C33.0971875,27.9540625 34.32,30.8953125 34.32,34.3321875 C34.32,37.7690625 33.10125,40.70625 30.66375,43.14375 C28.22625,45.58125 25.2890625,46.8 21.8521875,46.8 C18.4153125,46.8 15.4740625,45.5771875 13.0284375,43.1315625 C10.5828125,40.6859375 9.36,37.7446875 9.36,34.3078125 C9.36,30.8709375 10.586875,27.941875 13.040625,25.520625 L13.040625,25.520625 Z M43.68,0 L40.56,0 C40.56,5.33 38.7725,9.7825 35.1975,13.3575 C31.6225,16.9325 27.17,18.72 21.84,18.72 C18.41125,18.72 15.266875,17.899375 12.406875,16.258125 C9.546875,14.616875 7.288125,12.35 5.630625,9.4575 C3.956875,6.565 3.12,3.4125 3.12,0 L0,0 C0,4.68 1.3121875,8.88875 3.9365625,12.62625 C6.5609375,16.36375 10.05875,19.0125 14.43,20.5725 C11.91125,21.92125 9.920625,23.83875 8.458125,26.325 C6.995625,28.81125 6.25625,31.2975 6.24,33.78375 C6.24,36.27 6.638125,38.4596875 7.434375,40.3528125 C8.230625,42.2459375 9.351875,43.915625 10.798125,45.361875 C12.244375,46.808125 13.9140625,47.929375 15.8071875,48.725625 C17.7003125,49.521875 20.2596875,49.92 23.4853125,49.92 C26.7109375,49.92 29.843125,48.400625 32.881875,45.361875 C35.920625,42.323125 37.44,38.62625 37.44,34.27125 C37.44,29.91625 36.391875,26.715 34.295625,24.6675 C32.199375,22.62 30.53375,21.263125 29.29875,20.596875 C33.735,19.036875 37.2409375,16.3840625 39.8165625,12.6384375 C42.3921875,8.8928125 43.68,4.68 43.68,0 Z" id="Shape" transform="translate(21.840000, 24.960000) scale(-1, 1) rotate(-180.000000) translate(-21.840000, -24.960000) "></path>
                </g>
            </g>
        </g>
    </g>
</svg>