<?xml version="1.0" encoding="UTF-8"?>
<svg width="100px" height="100px" viewBox="0 0 100 100" version="1.1" xmlns="http://www.w3.org/2000/svg" xmlns:xlink="http://www.w3.org/1999/xlink">
    <!-- Generator: sketchtool 46.2 (44496) - http://www.bohemiancoding.com/sketch -->
    <title>D0B78D66-84F0-42BB-8948-40564BA0AAED</title>
    <desc>Created with sketchtool.</desc>
    <defs></defs>
    <g id="OOF-Visual-Design-V2" stroke="none" stroke-width="1" fill="none" fill-rule="evenodd">
        <g id="Response-type" transform="translate(-420.000000, -738.000000)" fill="#0490FF">
            <g id="Group-7" transform="translate(420.000000, 738.000000)">
                <circle id="Oval-3-Copy-3" fill-opacity="0.2" cx="50" cy="50" r="50"></circle>
                <path d="M41.040625,50.520625 C43.461875,48.066875 46.3909375,46.84 49.8278125,46.84 C53.2646875,46.84 56.2059375,48.0628125 58.6515625,50.5084375 C61.0971875,52.9540625 62.32,55.8953125 62.32,59.3321875 C62.32,62.7690625 61.10125,65.70625 58.66375,68.14375 C56.22625,70.58125 53.2890625,71.8 49.8521875,71.8 C46.4153125,71.8 43.4740625,70.5771875 41.0284375,68.1315625 C38.5828125,65.6859375 37.36,62.7446875 37.36,59.3078125 C37.36,55.8709375 38.586875,52.941875 41.040625,50.520625 L41.040625,50.520625 Z M71.68,25 L68.56,25 C68.56,30.33 66.7725,34.7825 63.1975,38.3575 C59.6225,41.9325 55.17,43.72 49.84,43.72 C46.41125,43.72 43.266875,42.899375 40.406875,41.258125 C37.546875,39.616875 35.288125,37.35 33.630625,34.4575 C31.956875,31.565 31.12,28.4125 31.12,25 L28,25 C28,29.68 29.3121875,33.88875 31.9365625,37.62625 C34.5609375,41.36375 38.05875,44.0125 42.43,45.5725 C39.91125,46.92125 37.920625,48.83875 36.458125,51.325 C34.995625,53.81125 34.25625,56.2975 34.24,58.78375 C34.24,61.27 34.638125,63.4596875 35.434375,65.3528125 C36.230625,67.2459375 37.351875,68.915625 38.798125,70.361875 C40.244375,71.808125 41.9140625,72.929375 43.8071875,73.725625 C45.7003125,74.521875 48.2596875,74.92 51.4853125,74.92 C54.7109375,74.92 57.843125,73.400625 60.881875,70.361875 C63.920625,67.323125 65.44,63.62625 65.44,59.27125 C65.44,54.91625 64.391875,51.715 62.295625,49.6675 C60.199375,47.62 58.53375,46.263125 57.29875,45.596875 C61.735,44.036875 65.2409375,41.3840625 67.8165625,37.6384375 C70.3921875,33.8928125 71.68,29.68 71.68,25 Z" id="Shape" fill-rule="nonzero" transform="translate(49.840000, 49.960000) scale(-1, 1) rotate(-180.000000) translate(-49.840000, -49.960000) "></path>
            </g>
        </g>
    </g>
</svg>