<?xml version="1.0" encoding="UTF-8"?>
<svg width="42px" height="40px" viewBox="0 0 42 40" version="1.1" xmlns="http://www.w3.org/2000/svg" xmlns:xlink="http://www.w3.org/1999/xlink">
    <!-- Generator: sketchtool 46.2 (44496) - http://www.bohemiancoding.com/sketch -->
    <title>42C59706-11A9-4714-B212-4632DD103814</title>
    <desc>Created with sketchtool.</desc>
    <defs></defs>
    <g id="OOF-Visual-Design-V2" stroke="none" stroke-width="1" fill="none" fill-rule="evenodd">
        <g id="Home---new" transform="translate(-30.000000, -949.000000)" fill-rule="nonzero" fill="#5037FF">
            <g id="Group-6" transform="translate(30.000000, 949.000000)">
                <g id="Group-4">
                    <path d="M2.6208,26.208 L2.6208,7.8624 L26.208,7.8624 L26.208,5.2416 L0,5.2416 L0,36.6912 L7.8624,36.6912 L7.8624,39.312 L10.4832,39.312 L10.4832,36.6912 L26.208,36.6912 L26.208,39.312 L28.8288,39.312 L28.8288,36.6912 L36.6912,36.6912 L36.6912,15.7248 L34.0704,15.7248 L34.0704,26.208 L2.6208,26.208 L2.6208,26.208 Z M7.8624,34.0704 L2.6208,34.0704 L2.6208,28.8288 L34.0704,28.8288 L34.0704,34.0704 L28.8288,34.0704 L28.8288,31.4496 L26.208,31.4496 L26.208,34.0704 L10.4832,34.0704 L10.4832,31.4496 L7.8624,31.4496 L7.8624,34.0704 L7.8624,34.0704 Z M36.6912,7.8624 L41.9328,7.8624 L41.9328,5.2416 L36.6912,5.2416 L36.6912,0 L34.0704,0 L34.0704,5.2416 L28.8288,5.2416 L28.8288,7.8624 L34.0704,7.8624 L34.0704,13.104 L36.6912,13.104 L36.6912,7.8624 Z" id="Shape" transform="translate(20.966400, 19.656000) scale(-1, 1) rotate(-180.000000) translate(-20.966400, -19.656000) "></path>
                </g>
            </g>
        </g>
    </g>
</svg>