<?xml version="1.0" encoding="UTF-8"?>
<svg width="141px" height="141px" viewBox="0 0 141 141" version="1.1" xmlns="http://www.w3.org/2000/svg" xmlns:xlink="http://www.w3.org/1999/xlink">
    <!-- Generator: sketchtool 46.2 (44496) - http://www.bohemiancoding.com/sketch -->
    <title>ACB833EC-CE5C-42B1-B11D-DA181D6F54B2</title>
    <desc>Created with sketchtool.</desc>
    <defs></defs>
    <g id="OOF-Visual-Design-V2" stroke="none" stroke-width="1" fill="none" fill-rule="evenodd">
        <g id="Confirmation_clearcalendar" transform="translate(-250.000000, -392.000000)">
            <g id="Group-2" transform="translate(78.000000, 392.000000)">
                <g id="Group" transform="translate(172.000000, 0.000000)">
                    <g id="Group-4">
                        <g id="Group-3" fill-opacity="0.2" fill="#655EFE">
                            <circle id="Oval-3" cx="70.5" cy="70.5" r="70.5"></circle>
                        </g>
                        <path d="M38.356923,41.356923 L107.00926,41.356923 L107.00926,36 L33,36 L33,100.283076 L49.0707691,100.283076 L49.0707691,105.639999 L54.4276921,105.639999 L54.4276921,100.283076 L86.5692303,100.283076 L86.5692303,105.639999 L91.9261533,105.639999 L91.9261533,100.283076 L107.996922,100.283076 L107.996922,36.0009274 L102.639999,36.0009274 L102.639999,78.8553842 L38.356923,78.8553842 L38.356923,41.356923 Z M49.0707691,94.9261533 L38.356923,94.9261533 L38.356923,84.2123073 L102.639999,84.2123073 L102.639999,94.9261533 L91.9261533,94.9261533 L91.9261533,89.5692303 L86.5692303,89.5692303 L86.5692303,94.9261533 L54.4276921,94.9261533 L54.4276921,89.5692303 L49.0707691,89.5692303 L49.0707691,94.9261533 Z M59.5720388,57.6059292 L82.0560717,57.6059292 L82.0560717,62.7159366 L59.5720388,62.7159366 L59.5720388,57.6059292 Z" id="Shape" fill="#5037FF" fill-rule="nonzero" transform="translate(70.498461, 70.820000) scale(-1, 1) rotate(-180.000000) translate(-70.498461, -70.820000) "></path>
                    </g>
                </g>
            </g>
        </g>
    </g>
</svg>