<?xml version="1.0" encoding="UTF-8"?>
<svg width="50px" height="44px" viewBox="0 0 50 44" version="1.1" xmlns="http://www.w3.org/2000/svg" xmlns:xlink="http://www.w3.org/1999/xlink">
    <!-- Generator: sketchtool 46.2 (44496) - http://www.bohemiancoding.com/sketch -->
    <title>F9333A7D-5022-4050-9054-BC5649764F80</title>
    <desc>Created with sketchtool.</desc>
    <defs></defs>
    <g id="OOF-Visual-Design-V2" stroke="none" stroke-width="1" fill="none" fill-rule="evenodd">
        <g id="Response-type-icons-grey" transform="translate(-345.000000, -65.000000)" fill-rule="nonzero" fill="#909197">
            <g id="Group-4" transform="translate(344.000000, 65.000000)">
                <g id="Group-5">
                    <path d="M46.8975,13.674375 C47.2875,13.251875 47.7465625,12.926875 48.2746875,12.699375 C48.8028125,12.471875 49.35125,12.358125 49.92,12.358125 L49.92,9.2625 C49.12375,9.2625 48.4453125,9.351875 47.8846875,9.530625 C47.3240625,9.709375 46.824375,9.92875 46.385625,10.18875 C45.946875,10.44875 45.556875,10.7371875 45.215625,11.0540625 C44.874375,11.3709375 44.525,11.659375 44.1675,11.919375 C43.81,12.179375 43.428125,12.39875 43.021875,12.5775 C42.615625,12.75625 42.13625,12.845625 41.58375,12.845625 C41.03125,12.845625 40.5559375,12.75625 40.1578125,12.5775 C39.7596875,12.39875 39.381875,12.179375 39.024375,11.919375 C38.666875,11.659375 38.3175,11.3709375 37.97625,11.0540625 C37.635,10.7371875 37.245,10.44875 36.80625,10.18875 C36.3675,9.92875 35.8678125,9.709375 35.3071875,9.530625 C34.7465625,9.351875 34.068125,9.2625 33.271875,9.2625 C32.475625,9.2625 31.7971875,9.351875 31.2365625,9.530625 C30.6759375,9.709375 30.1803125,9.92875 29.7496875,10.18875 C29.3190625,10.44875 28.933125,10.7371875 28.591875,11.0540625 C28.250625,11.3709375 27.9053125,11.659375 27.5559375,11.919375 C27.2065625,12.179375 26.82875,12.39875 26.4225,12.5775 C26.01625,12.75625 25.536875,12.845625 24.984375,12.845625 C24.415625,12.845625 23.863125,12.7359375 23.326875,12.5165625 C22.790625,12.2971875 22.3275,11.97625 21.9375,11.55375 L21.913125,11.55375 C21.230625,10.8225 20.434375,10.2578125 19.524375,9.8596875 C18.614375,9.4615625 17.655625,9.2625 16.648125,9.2625 C15.868125,9.2625 15.19375,9.351875 14.625,9.530625 C14.05625,9.709375 13.5565625,9.92875 13.1259375,10.18875 C12.6953125,10.44875 12.3053125,10.7371875 11.9559375,11.0540625 C11.6065625,11.3709375 11.2571875,11.659375 10.9078125,11.919375 C10.5584375,12.179375 10.1765625,12.39875 9.7621875,12.5775 C9.3478125,12.75625 8.864375,12.845625 8.311875,12.845625 C7.759375,12.845625 7.28,12.75625 6.87375,12.5775 C6.4675,12.39875 6.0896875,12.179375 5.7403125,11.919375 C5.3909375,11.659375 5.0415625,11.3709375 4.6921875,11.0540625 C4.3428125,10.7371875 3.9528125,10.44875 3.5221875,10.18875 C3.0915625,9.92875 2.591875,9.709375 2.023125,9.530625 C1.454375,9.351875 0.78,9.2625 0,9.2625 L0,12.358125 C0.5525,12.358125 1.0278125,12.4434375 1.4259375,12.6140625 C1.8240625,12.7846875 2.1978125,13.0040625 2.5471875,13.2721875 C2.8965625,13.5403125 3.2459375,13.8246875 3.5953125,14.1253125 C3.9446875,14.4259375 4.3346875,14.7103125 4.7653125,14.9784375 C5.1959375,15.2465625 5.695625,15.4659375 6.264375,15.6365625 C6.833125,15.8071875 7.515625,15.8925 8.311875,15.8925 C9.303125,15.8925 10.261875,15.705625 11.188125,15.331875 C12.114375,14.958125 12.91875,14.405625 13.60125,13.674375 L13.60125,13.69875 C13.99125,13.27625 14.4503125,12.9553125 14.9784375,12.7359375 C15.5065625,12.5165625 16.055,12.406875 16.62375,12.406875 C17.1925,12.406875 17.745,12.5165625 18.28125,12.7359375 C18.8175,12.9553125 19.280625,13.27625 19.670625,13.69875 L19.670625,13.674375 C20.353125,14.405625 21.1534375,14.958125 22.0715625,15.331875 C22.9896875,15.705625 23.93625,15.900625 24.91125,15.916875 L24.91125,35.904375 C24.91125,37.139375 25.0940625,38.2403125 25.4596875,39.2071875 C25.8253125,40.1740625 26.349375,40.9865625 27.031875,41.6446875 C27.714375,42.3028125 28.543125,42.8065625 29.518125,43.1559375 C30.493125,43.5053125 31.59,43.68 32.80875,43.68 C33.23125,43.68 33.596875,43.525625 33.905625,43.216875 C34.214375,42.908125 34.36875,42.5425 34.36875,42.12 C34.36875,41.6975 34.214375,41.3359375 33.905625,41.0353125 C33.596875,40.7346875 33.23125,40.584375 32.80875,40.584375 C32.11,40.584375 31.468125,40.503125 30.883125,40.340625 C30.298125,40.178125 29.7903125,39.918125 29.3596875,39.560625 C28.9290625,39.203125 28.5959375,38.7521875 28.3603125,38.2078125 C28.1246875,37.6634375 28.006875,37.009375 28.006875,36.245625 L28.006875,34.32 L40.535625,34.32 L40.535625,35.9775 C40.535625,37.16375 40.7265625,38.2321875 41.1084375,39.1828125 C41.4903125,40.1334375 42.0265625,40.941875 42.7171875,41.608125 C43.4078125,42.274375 44.2325,42.78625 45.19125,43.14375 C46.15,43.50125 47.20625,43.68 48.36,43.68 C48.7825,43.68 49.148125,43.525625 49.456875,43.216875 C49.765625,42.908125 49.92,42.5425 49.92,42.12 C49.92,41.6975 49.765625,41.3359375 49.456875,41.0353125 C49.148125,40.7346875 48.7825,40.584375 48.36,40.584375 C46.8975,40.584375 45.74375,40.1984375 44.89875,39.4265625 C44.05375,38.6546875 43.63125,37.505 43.63125,35.9775 C43.63125,32.54875 43.6353125,29.1525 43.6434375,25.78875 C43.6515625,22.425 43.655625,19.02875 43.655625,15.6 C44.273125,15.42125 44.8540625,15.1734375 45.3984375,14.8565625 C45.9428125,14.5396875 46.434375,14.145625 46.873125,13.674375 L46.8975,13.674375 L46.8975,13.674375 Z M40.535625,21.84 L28.006875,21.84 C28.006875,21.645 28.0109375,21.3646875 28.0190625,20.9990625 C28.0271875,20.6334375 28.0353125,20.23125 28.0434375,19.7925 C28.0515625,19.35375 28.0596875,18.89875 28.0678125,18.4275 C28.0759375,17.95625 28.0759375,17.509375 28.0678125,17.086875 C28.0596875,16.664375 28.0475,16.290625 28.03125,15.965625 C28.015,15.640625 27.990625,15.405 27.958125,15.25875 C28.510625,15.015 28.981875,14.7265625 29.371875,14.3934375 C29.761875,14.0603125 30.1396875,13.7475 30.5053125,13.455 C30.8709375,13.1625 31.265,12.910625 31.6875,12.699375 C32.11,12.488125 32.638125,12.3825 33.271875,12.3825 C34.474375,12.3825 35.49,12.813125 36.31875,13.674375 C37.45625,14.844375 38.861875,15.55125 40.535625,15.795 L40.535625,21.84 L40.535625,21.84 Z M40.535625,31.224375 L28.006875,31.224375 L28.006875,24.935625 L40.535625,24.935625 L40.535625,31.224375 L40.535625,31.224375 Z M46.8975,4.43625 C47.2875,4.01375 47.7465625,3.6846875 48.2746875,3.4490625 C48.8028125,3.2134375 49.35125,3.095625 49.92,3.095625 L49.92,0 C49.12375,0 48.4453125,0.089375 47.8846875,0.268125 C47.3240625,0.446875 46.8284375,0.66625 46.3978125,0.92625 C45.9671875,1.18625 45.5771875,1.4746875 45.2278125,1.7915625 C44.8784375,2.1084375 44.525,2.396875 44.1675,2.656875 C43.81,2.916875 43.428125,3.13625 43.021875,3.315 C42.615625,3.49375 42.13625,3.583125 41.58375,3.583125 C41.03125,3.583125 40.551875,3.49375 40.145625,3.315 C39.739375,3.13625 39.3615625,2.916875 39.0121875,2.656875 C38.6628125,2.396875 38.3134375,2.1084375 37.9640625,1.7915625 C37.6146875,1.4746875 37.2246875,1.18625 36.7940625,0.92625 C36.3634375,0.66625 35.86375,0.446875 35.295,0.268125 C34.72625,0.089375 34.051875,0 33.271875,0 C32.491875,0 31.8215625,0.089375 31.2609375,0.268125 C30.7003125,0.446875 30.200625,0.66625 29.761875,0.92625 C29.323125,1.18625 28.933125,1.4746875 28.591875,1.7915625 C28.250625,2.1084375 27.90125,2.396875 27.54375,2.656875 C27.18625,2.916875 26.804375,3.13625 26.398125,3.315 C25.991875,3.49375 25.5125,3.583125 24.96,3.583125 C24.39125,3.583125 23.8428125,3.4734375 23.3146875,3.2540625 C22.7865625,3.0346875 22.3275,2.71375 21.9375,2.29125 L21.913125,2.29125 C21.230625,1.56 20.434375,0.9953125 19.524375,0.5971875 C18.614375,0.1990625 17.655625,0 16.648125,0 C15.868125,0 15.1978125,0.089375 14.6371875,0.268125 C14.0765625,0.446875 13.576875,0.66625 13.138125,0.92625 C12.699375,1.18625 12.3053125,1.4746875 11.9559375,1.7915625 C11.6065625,2.1084375 11.253125,2.396875 10.895625,2.656875 C10.538125,2.916875 10.15625,3.13625 9.75,3.315 C9.34375,3.49375 8.864375,3.583125 8.311875,3.583125 C7.759375,3.583125 7.2840625,3.49375 6.8859375,3.315 C6.4878125,3.13625 6.11,2.916875 5.7525,2.656875 C5.395,2.396875 5.0415625,2.1084375 4.6921875,1.7915625 C4.3428125,1.4746875 3.94875,1.18625 3.51,0.92625 C3.07125,0.66625 2.5715625,0.446875 2.0109375,0.268125 C1.4503125,0.089375 0.78,0 0,0 L0,3.095625 C0.53625,3.095625 1.0034375,3.185 1.4015625,3.36375 C1.7996875,3.5425 2.1734375,3.761875 2.5228125,4.021875 C2.8721875,4.281875 3.2215625,4.56625 3.5709375,4.875 C3.9203125,5.18375 4.314375,5.468125 4.753125,5.728125 C5.191875,5.988125 5.695625,6.2075 6.264375,6.38625 C6.833125,6.565 7.515625,6.654375 8.311875,6.654375 C9.108125,6.654375 9.7946875,6.5690625 10.3715625,6.3984375 C10.9484375,6.2278125 11.4521875,6.0125 11.8828125,5.7525 C12.3134375,5.4925 12.699375,5.208125 13.040625,4.899375 C13.381875,4.590625 13.7271875,4.30625 14.0765625,4.04625 C14.4259375,3.78625 14.7996875,3.5709375 15.1978125,3.4003125 C15.5959375,3.2296875 16.07125,3.144375 16.62375,3.144375 C17.17625,3.144375 17.655625,3.2296875 18.061875,3.4003125 C18.468125,3.5709375 18.8459375,3.78625 19.1953125,4.04625 C19.5446875,4.30625 19.89,4.590625 20.23125,4.899375 C20.5725,5.208125 20.9625,5.4925 21.40125,5.7525 C21.84,6.0125 22.34375,6.2278125 22.9125,6.3984375 C23.48125,6.5690625 24.16375,6.654375 24.96,6.654375 C25.75625,6.654375 26.43875,6.5690625 27.0075,6.3984375 C27.57625,6.2278125 28.08,6.0125 28.51875,5.7525 C28.9575,5.4925 29.3475,5.208125 29.68875,4.899375 C30.03,4.590625 30.3753125,4.30625 30.7246875,4.04625 C31.0740625,3.78625 31.4478125,3.5709375 31.8459375,3.4003125 C32.2440625,3.2296875 32.719375,3.144375 33.271875,3.144375 C33.824375,3.144375 34.2996875,3.2296875 34.6978125,3.4003125 C35.0959375,3.5709375 35.4696875,3.78625 35.8190625,4.04625 C36.1684375,4.30625 36.5178125,4.590625 36.8671875,4.899375 C37.2165625,5.208125 37.610625,5.4925 38.049375,5.7525 C38.488125,6.0125 38.991875,6.2278125 39.560625,6.3984375 C40.129375,6.5690625 40.811875,6.654375 41.608125,6.654375 C42.599375,6.654375 43.5540625,6.4675 44.4721875,6.09375 C45.3903125,5.72 46.190625,5.1675 46.873125,4.43625 L46.8975,4.43625 Z" id="Shape" transform="translate(24.960000, 21.840000) scale(-1, 1) rotate(-180.000000) translate(-24.960000, -21.840000) "></path>
                </g>
            </g>
        </g>
    </g>
</svg>