<?xml version="1.0" encoding="UTF-8"?>
<svg width="100px" height="100px" viewBox="0 0 100 100" version="1.1" xmlns="http://www.w3.org/2000/svg" xmlns:xlink="http://www.w3.org/1999/xlink">
    <!-- Generator: sketchtool 46.2 (44496) - http://www.bohemiancoding.com/sketch -->
    <title>61A7A56F-ACC1-413B-BB06-34A2E045906E</title>
    <desc>Created with sketchtool.</desc>
    <defs></defs>
    <g id="OOF-Visual-Design-V2" stroke="none" stroke-width="1" fill="none" fill-rule="evenodd">
        <g id="Response-type" transform="translate(-120.000000, -738.000000)" fill="#0490FF">
            <g id="Group-6" transform="translate(120.000000, 738.000000)">
                <circle id="Oval-3-Copy-2" fill-opacity="0.2" cx="50" cy="50" r="50"></circle>
                <g id="EB40" transform="translate(25.000000, 28.000000)" fill-rule="nonzero">
                    <path d="M46.94625,13.7597917 C47.33625,13.3372917 47.7953125,13.0122917 48.3234375,12.7847917 C48.8515625,12.5572917 49.4,12.4435417 49.96875,12.4435417 L49.96875,9.34791667 C49.1725,9.34791667 48.4940625,9.43729167 47.9334375,9.61604167 C47.3728125,9.79479167 46.873125,10.0141667 46.434375,10.2741667 C45.995625,10.5341667 45.605625,10.8226042 45.264375,11.1394792 C44.923125,11.4563542 44.57375,11.7447917 44.21625,12.0047917 C43.85875,12.2647917 43.476875,12.4841667 43.070625,12.6629167 C42.664375,12.8416667 42.185,12.9310417 41.6325,12.9310417 C41.08,12.9310417 40.6046875,12.8416667 40.2065625,12.6629167 C39.8084375,12.4841667 39.430625,12.2647917 39.073125,12.0047917 C38.715625,11.7447917 38.36625,11.4563542 38.025,11.1394792 C37.68375,10.8226042 37.29375,10.5341667 36.855,10.2741667 C36.41625,10.0141667 35.9165625,9.79479167 35.3559375,9.61604167 C34.7953125,9.43729167 34.116875,9.34791667 33.320625,9.34791667 C32.524375,9.34791667 31.8459375,9.43729167 31.2853125,9.61604167 C30.7246875,9.79479167 30.2290625,10.0141667 29.7984375,10.2741667 C29.3678125,10.5341667 28.981875,10.8226042 28.640625,11.1394792 C28.299375,11.4563542 27.9540625,11.7447917 27.6046875,12.0047917 C27.2553125,12.2647917 26.8775,12.4841667 26.47125,12.6629167 C26.065,12.8416667 25.585625,12.9310417 25.033125,12.9310417 C24.464375,12.9310417 23.911875,12.8213542 23.375625,12.6019792 C22.839375,12.3826042 22.37625,12.0616667 21.98625,11.6391667 L21.961875,11.6391667 C21.279375,10.9079167 20.483125,10.3432292 19.573125,9.94510417 C18.663125,9.54697917 17.704375,9.34791667 16.696875,9.34791667 C15.916875,9.34791667 15.2425,9.43729167 14.67375,9.61604167 C14.105,9.79479167 13.6053125,10.0141667 13.1746875,10.2741667 C12.7440625,10.5341667 12.3540625,10.8226042 12.0046875,11.1394792 C11.6553125,11.4563542 11.3059375,11.7447917 10.9565625,12.0047917 C10.6071875,12.2647917 10.2253125,12.4841667 9.8109375,12.6629167 C9.3965625,12.8416667 8.913125,12.9310417 8.360625,12.9310417 C7.808125,12.9310417 7.32875,12.8416667 6.9225,12.6629167 C6.51625,12.4841667 6.1384375,12.2647917 5.7890625,12.0047917 C5.4396875,11.7447917 5.0903125,11.4563542 4.7409375,11.1394792 C4.3915625,10.8226042 4.0015625,10.5341667 3.5709375,10.2741667 C3.1403125,10.0141667 2.640625,9.79479167 2.071875,9.61604167 C1.503125,9.43729167 0.82875,9.34791667 0.04875,9.34791667 L0.04875,12.4435417 C0.60125,12.4435417 1.0765625,12.5288542 1.4746875,12.6994792 C1.8728125,12.8701042 2.2465625,13.0894792 2.5959375,13.3576042 C2.9453125,13.6257292 3.2946875,13.9101042 3.6440625,14.2107292 C3.9934375,14.5113542 4.3834375,14.7957292 4.8140625,15.0638542 C5.2446875,15.3319792 5.744375,15.5513542 6.313125,15.7219792 C6.881875,15.8926042 7.564375,15.9779167 8.360625,15.9779167 C9.351875,15.9779167 10.310625,15.7910417 11.236875,15.4172917 C12.163125,15.0435417 12.9675,14.4910417 13.65,13.7597917 L13.65,13.7841667 C14.04,13.3616667 14.4990625,13.0407292 15.0271875,12.8213542 C15.5553125,12.6019792 16.10375,12.4922917 16.6725,12.4922917 C17.24125,12.4922917 17.79375,12.6019792 18.33,12.8213542 C18.86625,13.0407292 19.329375,13.3616667 19.719375,13.7841667 L19.719375,13.7597917 C20.401875,14.4910417 21.2021875,15.0435417 22.1203125,15.4172917 C23.0384375,15.7910417 23.985,15.9860417 24.96,16.0022917 L24.96,35.9897917 C24.96,37.2247917 25.1428125,38.3257292 25.5084375,39.2926042 C25.8740625,40.2594792 26.398125,41.0719792 27.080625,41.7301042 C27.763125,42.3882292 28.591875,42.8919792 29.566875,43.2413542 C30.541875,43.5907292 31.63875,43.7654167 32.8575,43.7654167 C33.28,43.7654167 33.645625,43.6110417 33.954375,43.3022917 C34.263125,42.9935417 34.4175,42.6279167 34.4175,42.2054167 C34.4175,41.7829167 34.263125,41.4213542 33.954375,41.1207292 C33.645625,40.8201042 33.28,40.6697917 32.8575,40.6697917 C32.15875,40.6697917 31.516875,40.5885417 30.931875,40.4260417 C30.346875,40.2635417 29.8390625,40.0035417 29.4084375,39.6460417 C28.9778125,39.2885417 28.6446875,38.8376042 28.4090625,38.2932292 C28.1734375,37.7488542 28.055625,37.0947917 28.055625,36.3310417 L28.055625,34.4054167 L40.584375,34.4054167 L40.584375,36.0629167 C40.584375,37.2491667 40.7753125,38.3176042 41.1571875,39.2682292 C41.5390625,40.2188542 42.0753125,41.0272917 42.7659375,41.6935417 C43.4565625,42.3597917 44.28125,42.8716667 45.24,43.2291667 C46.19875,43.5866667 47.255,43.7654167 48.40875,43.7654167 C48.83125,43.7654167 49.196875,43.6110417 49.505625,43.3022917 C49.814375,42.9935417 49.96875,42.6279167 49.96875,42.2054167 C49.96875,41.7829167 49.814375,41.4213542 49.505625,41.1207292 C49.196875,40.8201042 48.83125,40.6697917 48.40875,40.6697917 C46.94625,40.6697917 45.7925,40.2838542 44.9475,39.5119792 C44.1025,38.7401042 43.68,37.5904167 43.68,36.0629167 C43.68,32.6341667 43.6840625,29.2379167 43.6921875,25.8741667 C43.7003125,22.5104167 43.704375,19.1141667 43.704375,15.6854167 C44.321875,15.5066667 44.9028125,15.2588542 45.4471875,14.9419792 C45.9915625,14.6251042 46.483125,14.2310417 46.921875,13.7597917 L46.94625,13.7597917 L46.94625,13.7597917 Z M40.584375,21.9254167 L28.055625,21.9254167 C28.055625,21.7304167 28.0596875,21.4501042 28.0678125,21.0844792 C28.0759375,20.7188542 28.0840625,20.3166667 28.0921875,19.8779167 C28.1003125,19.4391667 28.1084375,18.9841667 28.1165625,18.5129167 C28.1246875,18.0416667 28.1246875,17.5947917 28.1165625,17.1722917 C28.1084375,16.7497917 28.09625,16.3760417 28.08,16.0510417 C28.06375,15.7260417 28.039375,15.4904167 28.006875,15.3441667 C28.559375,15.1004167 29.030625,14.8119792 29.420625,14.4788542 C29.810625,14.1457292 30.1884375,13.8329167 30.5540625,13.5404167 C30.9196875,13.2479167 31.31375,12.9960417 31.73625,12.7847917 C32.15875,12.5735417 32.686875,12.4679167 33.320625,12.4679167 C34.523125,12.4679167 35.53875,12.8985417 36.3675,13.7597917 C37.505,14.9297917 38.910625,15.6366667 40.584375,15.8804167 L40.584375,21.9254167 L40.584375,21.9254167 Z M40.584375,31.3097917 L28.055625,31.3097917 L28.055625,25.0210417 L40.584375,25.0210417 L40.584375,31.3097917 L40.584375,31.3097917 Z M46.94625,4.52166667 C47.33625,4.09916667 47.7953125,3.77010417 48.3234375,3.53447917 C48.8515625,3.29885417 49.4,3.18104167 49.96875,3.18104167 L49.96875,0.0854166667 C49.1725,0.0854166667 48.4940625,0.174791667 47.9334375,0.353541667 C47.3728125,0.532291667 46.8771875,0.751666667 46.4465625,1.01166667 C46.0159375,1.27166667 45.6259375,1.56010417 45.2765625,1.87697917 C44.9271875,2.19385417 44.57375,2.48229167 44.21625,2.74229167 C43.85875,3.00229167 43.476875,3.22166667 43.070625,3.40041667 C42.664375,3.57916667 42.185,3.66854167 41.6325,3.66854167 C41.08,3.66854167 40.600625,3.57916667 40.194375,3.40041667 C39.788125,3.22166667 39.4103125,3.00229167 39.0609375,2.74229167 C38.7115625,2.48229167 38.3621875,2.19385417 38.0128125,1.87697917 C37.6634375,1.56010417 37.2734375,1.27166667 36.8428125,1.01166667 C36.4121875,0.751666667 35.9125,0.532291667 35.34375,0.353541667 C34.775,0.174791667 34.100625,0.0854166667 33.320625,0.0854166667 C32.540625,0.0854166667 31.8703125,0.174791667 31.3096875,0.353541667 C30.7490625,0.532291667 30.249375,0.751666667 29.810625,1.01166667 C29.371875,1.27166667 28.981875,1.56010417 28.640625,1.87697917 C28.299375,2.19385417 27.95,2.48229167 27.5925,2.74229167 C27.235,3.00229167 26.853125,3.22166667 26.446875,3.40041667 C26.040625,3.57916667 25.56125,3.66854167 25.00875,3.66854167 C24.44,3.66854167 23.8915625,3.55885417 23.3634375,3.33947917 C22.8353125,3.12010417 22.37625,2.79916667 21.98625,2.37666667 L21.961875,2.37666667 C21.279375,1.64541667 20.483125,1.08072917 19.573125,0.682604167 C18.663125,0.284479167 17.704375,0.0854166667 16.696875,0.0854166667 C15.916875,0.0854166667 15.2465625,0.174791667 14.6859375,0.353541667 C14.1253125,0.532291667 13.625625,0.751666667 13.186875,1.01166667 C12.748125,1.27166667 12.3540625,1.56010417 12.0046875,1.87697917 C11.6553125,2.19385417 11.301875,2.48229167 10.944375,2.74229167 C10.586875,3.00229167 10.205,3.22166667 9.79875,3.40041667 C9.3925,3.57916667 8.913125,3.66854167 8.360625,3.66854167 C7.808125,3.66854167 7.3328125,3.57916667 6.9346875,3.40041667 C6.5365625,3.22166667 6.15875,3.00229167 5.80125,2.74229167 C5.44375,2.48229167 5.0903125,2.19385417 4.7409375,1.87697917 C4.3915625,1.56010417 3.9975,1.27166667 3.55875,1.01166667 C3.12,0.751666667 2.6203125,0.532291667 2.0596875,0.353541667 C1.4990625,0.174791667 0.82875,0.0854166667 0.04875,0.0854166667 L0.04875,3.18104167 C0.585,3.18104167 1.0521875,3.27041667 1.4503125,3.44916667 C1.8484375,3.62791667 2.2221875,3.84729167 2.5715625,4.10729167 C2.9209375,4.36729167 3.2703125,4.65166667 3.6196875,4.96041667 C3.9690625,5.26916667 4.363125,5.55354167 4.801875,5.81354167 C5.240625,6.07354167 5.744375,6.29291667 6.313125,6.47166667 C6.881875,6.65041667 7.564375,6.73979167 8.360625,6.73979167 C9.156875,6.73979167 9.8434375,6.65447917 10.4203125,6.48385417 C10.9971875,6.31322917 11.5009375,6.09791667 11.9315625,5.83791667 C12.3621875,5.57791667 12.748125,5.29354167 13.089375,4.98479167 C13.430625,4.67604167 13.7759375,4.39166667 14.1253125,4.13166667 C14.4746875,3.87166667 14.8484375,3.65635417 15.2465625,3.48572917 C15.6446875,3.31510417 16.12,3.22979167 16.6725,3.22979167 C17.225,3.22979167 17.704375,3.31510417 18.110625,3.48572917 C18.516875,3.65635417 18.8946875,3.87166667 19.2440625,4.13166667 C19.5934375,4.39166667 19.93875,4.67604167 20.28,4.98479167 C20.62125,5.29354167 21.01125,5.57791667 21.45,5.83791667 C21.88875,6.09791667 22.3925,6.31322917 22.96125,6.48385417 C23.53,6.65447917 24.2125,6.73979167 25.00875,6.73979167 C25.805,6.73979167 26.4875,6.65447917 27.05625,6.48385417 C27.625,6.31322917 28.12875,6.09791667 28.5675,5.83791667 C29.00625,5.57791667 29.39625,5.29354167 29.7375,4.98479167 C30.07875,4.67604167 30.4240625,4.39166667 30.7734375,4.13166667 C31.1228125,3.87166667 31.4965625,3.65635417 31.8946875,3.48572917 C32.2928125,3.31510417 32.768125,3.22979167 33.320625,3.22979167 C33.873125,3.22979167 34.3484375,3.31510417 34.7465625,3.48572917 C35.1446875,3.65635417 35.5184375,3.87166667 35.8678125,4.13166667 C36.2171875,4.39166667 36.5665625,4.67604167 36.9159375,4.98479167 C37.2653125,5.29354167 37.659375,5.57791667 38.098125,5.83791667 C38.536875,6.09791667 39.040625,6.31322917 39.609375,6.48385417 C40.178125,6.65447917 40.860625,6.73979167 41.656875,6.73979167 C42.648125,6.73979167 43.6028125,6.55291667 44.5209375,6.17916667 C45.4390625,5.80541667 46.239375,5.25291667 46.921875,4.52166667 L46.94625,4.52166667 Z" id="Shape" transform="translate(25.008750, 21.925417) scale(-1, 1) rotate(-180.000000) translate(-25.008750, -21.925417) "></path>
                </g>
            </g>
        </g>
    </g>
</svg>