<?xml version="1.0" encoding="UTF-8"?>
<svg width="100px" height="100px" viewBox="0 0 100 100" version="1.1" xmlns="http://www.w3.org/2000/svg" xmlns:xlink="http://www.w3.org/1999/xlink">
    <!-- Generator: sketchtool 46.2 (44496) - http://www.bohemiancoding.com/sketch -->
    <title>FC3F08C4-6432-4922-AB12-4B60FB57C3E5</title>
    <desc>Created with sketchtool.</desc>
    <defs></defs>
    <g id="OOF-Visual-Design-V2" stroke="none" stroke-width="1" fill="none" fill-rule="evenodd">
        <g id="Response-type" transform="translate(-420.000000, -468.000000)" fill="#0490FF">
            <g id="Group-4" transform="translate(420.000000, 468.000000)">
                <circle id="Oval-3-Copy" fill-opacity="0.2" cx="50" cy="50" r="50"></circle>
                <path d="M53.08,43.48 L53.08,46.6 L46.84,46.6 L46.84,43.48 L53.08,43.48 L53.08,43.48 Z M28.12,34.12 L71.8,34.12 L71.8,51.109375 L56.2,43.285 L56.2,40.36 L43.72,40.36 L43.72,43.285 L28.12,51.109375 L28.12,34.12 L28.12,34.12 Z M71.8,59.08 L28.12,59.08 L28.12,54.570625 L43.72,46.795 L43.72,49.72 L56.2,49.72 L56.2,46.795 L71.8,54.570625 L71.8,59.08 L71.8,59.08 Z M56.2,65.32 L43.72,65.32 L43.72,62.2 L56.2,62.2 L56.2,65.32 L56.2,65.32 Z M59.32,65.32 L59.32,62.2 L74.92,62.2 L74.92,31 L25,31 L25,62.2 L40.6,62.2 L40.6,65.32 C40.6,66.165 40.90875,66.89625 41.52625,67.51375 C42.14375,68.13125 42.875,68.44 43.72,68.44 L56.2,68.44 C57.045,68.44 57.784375,68.139375 58.418125,67.538125 C59.019375,66.904375 59.32,66.165 59.32,65.32 Z" id="Shape" fill-rule="nonzero" transform="translate(49.960000, 49.720000) scale(-1, 1) rotate(-180.000000) translate(-49.960000, -49.720000) "></path>
            </g>
        </g>
    </g>
</svg>